<svg width="123" height="37" viewBox="0 0 123 37" fill="none" xmlns="http://www.w3.org/2000/svg">
<path d="M20.8686 0C20.8127 0.98226 21.7606 0.986613 22.2636 1.38518C23.2379 2.1254 24.251 2.81173 25.2985 3.44117C26.1776 3.9922 27.1082 4.46046 27.9916 5.00713C29.0233 5.64527 30.012 6.35965 31.0502 6.98472C32.0883 7.6098 33.1995 8.0737 34.1882 8.75322C35.4478 9.61134 36.6342 10.5849 37.8121 11.5584C38.0098 11.7196 38.085 12.1225 38.0936 12.4187C38.128 13.4271 38.0764 14.4377 38.1151 15.4483C38.1538 16.5068 37.5112 17.0316 36.7094 17.489C36.2172 17.77 35.7551 18.1076 35.1684 18.4887C35.6778 18.8502 36.0947 19.2357 36.5826 19.4753C37.5907 19.9741 38.2183 20.6449 38.1194 21.8711C38.0453 22.6257 38.0453 23.3859 38.1194 24.1405C38.2806 25.5518 37.2747 26.1682 36.3784 26.815C35.0394 27.7842 33.6531 28.6968 32.2452 29.5636C31.2458 30.1778 30.1625 30.6526 29.148 31.2363C28.2882 31.7351 27.4693 32.3253 26.6268 32.8502C25.5521 33.5275 24.4774 34.1831 23.4027 34.8713C22.515 35.4485 21.6188 36.0213 20.7805 36.6681C20.1593 37.1495 17.8939 37.0863 17.2341 36.6137C16.3055 35.9603 15.2867 35.4202 14.3131 34.8169C13.3745 34.2361 12.4431 33.6451 11.5189 33.044C10.6033 32.4494 9.70053 31.8331 8.7849 31.2363C7.75966 30.5677 6.73656 29.8969 5.69627 29.2522C4.79138 28.6903 3.86286 28.1632 2.94938 27.6165C2.0359 27.0699 1.15466 26.5711 0.299211 25.9874C0.125113 25.8698 0.0842748 25.48 0.0842748 25.2121C0.0627812 23.8421 -0.0188946 22.4613 0.122963 21.1044C0.178847 20.5839 0.686097 19.8761 1.15251 19.6996C1.67051 19.5036 2.42278 19.6997 2.99237 19.9371C3.61568 20.1919 4.16377 20.6558 4.69896 21.0892C4.80858 21.1785 4.80428 21.6598 4.69896 21.7426C4.16162 22.1172 3.57484 22.4156 2.80322 22.8555C3.38785 23.461 3.86501 24.1318 4.49692 24.5739C5.67262 25.3928 6.9214 26.1094 8.17019 26.8107C9.24487 27.4183 10.3819 27.9389 11.4781 28.5204C11.5877 28.5825 11.6756 28.6777 11.7295 28.7926C12.6731 28.3265 13.4813 27.8322 14.3518 27.5185C15.5253 27.096 16.2024 28.2547 17.1115 28.6467C17.7048 28.9015 17.0449 30.1713 16.0927 30.4893C15.8628 30.5655 15.6242 30.6199 15.276 30.7071C16.5398 32.4146 18.1669 33.0658 20.0755 32.6389C21.0341 32.4211 22.0099 31.8853 22.4871 30.8247C20.1529 29.287 17.9176 27.7755 15.6435 26.3272C14.6591 25.7021 13.5866 25.223 12.5785 24.6327C11.7467 24.1449 10.9536 23.5938 10.1412 23.0711C9.07937 22.3851 8.01113 21.7121 6.96009 21.0108C6.03372 20.3922 5.14603 19.7171 4.20676 19.1203C3.62991 18.7437 3.01624 18.4284 2.3755 18.1794C0.847299 17.611 0.0713787 16.5765 0.0692293 14.9757C0.0692293 14.2918 0.1681 13.5883 0.049885 12.924C-0.190844 11.5976 0.464712 10.8528 1.47706 10.2212C2.48941 9.58956 3.49962 8.84687 4.54421 8.19349C5.50927 7.59672 6.53882 7.1045 7.50388 6.50339C8.46895 5.90227 9.35234 5.22057 10.2981 4.60638C10.8247 4.26227 11.4028 4.00091 11.9423 3.6764C13.2857 2.86402 14.6183 2.04075 15.9573 1.21966C16.2599 1.06387 16.5477 0.880135 16.8171 0.670809C16.984 0.468851 17.1202 0.242753 17.2212 0H20.8686ZM2.62267 14.074C3.2245 14.4943 3.48242 14.7274 3.76829 14.8624C4.83007 15.3219 5.68767 16.5808 7.03317 15.9514C8.08206 15.4635 9.04068 14.7753 10.0229 14.1524C11.3448 13.3139 12.6022 12.3686 13.9885 11.6499C14.4399 11.4147 15.19 11.6935 15.7811 11.8372C16.1125 11.9507 16.413 12.1418 16.658 12.3948C16.9259 12.6352 17.1532 12.9184 17.3308 13.2333C17.3518 13.3299 17.3483 13.4304 17.3204 13.5253C17.2926 13.6201 17.2414 13.7063 17.1717 13.7756C16.1529 14.5096 15.1255 15.2414 14.0659 15.9144C12.8343 16.6941 11.5597 17.4041 10.326 18.1794C10.2035 18.2557 10.1347 18.7087 10.1992 18.7544C11.2739 19.5167 12.37 20.2594 13.4834 20.9694C14.5001 21.6228 15.5167 22.2762 16.5849 22.8359C17.5285 23.3281 18.3044 24.3714 19.5726 23.938C20.0024 23.792 20.3506 23.4588 20.7354 23.2127C21.7456 22.5593 22.7536 21.9059 23.7681 21.2721C24.6472 20.7146 25.4876 20.083 26.4269 19.643C27.8111 18.9896 28.7439 19.9501 29.7025 20.7647C30.2205 21.2003 30.6654 21.4573 29.6402 21.8645C28.9954 22.1215 28.4881 22.7357 27.8777 23.106C26.0851 24.2167 24.2711 25.2839 22.4011 26.4208C22.9385 26.7802 23.3275 27.035 23.7122 27.292C24.5118 27.8409 25.3028 28.4071 26.1174 28.9342C26.2206 29.0017 26.4634 28.9342 26.601 28.8493C26.8761 28.6881 27.1147 28.4616 27.3877 28.2917C28.3226 27.7145 29.2812 27.1766 30.199 26.5777C31.1168 25.9787 31.8798 25.1554 32.847 24.7874C33.9432 24.3692 34.5665 23.6352 35.1684 22.788C33.5413 21.8036 31.9722 20.8866 30.4398 19.9153C28.7826 18.8633 27.1792 17.7373 25.5156 16.6875C23.852 15.6378 22.1217 14.6969 20.4517 13.6558C18.9944 12.7476 17.578 11.7697 16.1529 10.8245C14.8268 9.93803 13.5135 9.03418 12.1809 8.16082C12.0929 8.11731 11.9962 8.0947 11.8983 8.0947C11.8003 8.0947 11.7037 8.11731 11.6156 8.16082C9.8166 9.30425 8.03478 10.476 6.24221 11.6325C5.85317 11.883 5.419 12.0681 5.03856 12.336C4.25619 12.8717 3.50391 13.4402 2.62267 14.074ZM35.1727 14.037C32.5719 11.565 29.1544 10.219 26.3087 8.0737L22.4398 10.4891C23.7122 11.3602 24.9051 12.1966 26.1281 12.9894C27.579 13.9324 28.9997 14.9495 30.5472 15.6966C31.2071 16.0145 32.2237 15.9144 32.9481 15.6574C33.7261 15.3808 34.343 14.6773 35.1727 14.0457V14.037ZM15.7789 6.14402C17.9648 8.69659 20.1701 8.43088 22.3431 6.14402C22.0529 4.90477 20.7354 4.24484 18.4613 4.30583C17.1137 4.35156 15.9509 5.19879 15.7789 6.14402Z" fill="white"/>
<path d="M123 24.036C122.531 24.3344 122.069 24.6458 121.592 24.9311C121.315 25.0966 121.014 25.3362 120.717 25.3427C118.865 25.3819 117.008 25.4016 115.155 25.358C114.11 25.334 112.924 24.1144 112.913 23.0559C112.882 20.0314 112.882 17.0055 112.913 13.9782C112.924 12.8739 114.127 11.7065 115.239 11.6695C116.7 11.6216 118.164 11.6412 119.625 11.6107C120.81 11.5889 121.854 11.8285 122.497 12.9698C122.542 13.0482 122.826 12.9872 123 12.9915V24.036ZM115.067 23.2214C116.765 23.2214 118.224 23.2759 119.677 23.1975C120.393 23.1583 120.868 22.6573 120.87 21.8645C120.87 19.6692 120.896 17.4716 120.855 15.2784C120.838 14.3724 120.333 13.8301 119.376 13.8301C118.42 13.8301 117.521 13.8301 116.595 13.8301C115.357 13.8431 115.077 14.1154 115.069 15.3546C115.058 17.0099 115.069 18.6651 115.069 20.3225L115.067 23.2214Z" fill="white"/>
<path d="M100.799 25.3406V11.6064C101.554 11.6064 102.287 11.6064 103.017 11.6064C104.625 11.6064 106.241 11.5911 107.838 11.639C109.67 11.6935 110.759 12.7019 110.794 14.5161C110.847 17.4694 110.897 20.4314 110.688 23.3695C110.639 24.0665 109.592 25.199 108.932 25.2513C106.254 25.4669 103.546 25.3406 100.799 25.3406ZM102.918 23.204C104.582 23.204 106.143 23.2236 107.709 23.204C108.438 23.1909 108.647 22.6856 108.644 22.0214C108.644 19.7541 108.621 17.4847 108.644 15.2174C108.652 14.9106 108.55 14.6113 108.359 14.3736C108.167 14.1359 107.898 13.9755 107.6 13.9215C106.061 13.7756 104.5 13.8649 102.91 13.8649L102.918 23.204Z" fill="white"/>
<path d="M88.5973 11.7261C90.4049 11.4103 90.6413 11.6042 90.6435 13.4032C90.6435 16.1104 90.6435 18.8176 90.6435 21.5226C90.6435 22.6769 91.1529 23.2105 92.2856 23.2258C93.6031 23.2432 94.9228 23.2258 96.3522 23.2258C96.4038 22.6072 96.4811 22.0823 96.4833 21.5574C96.4962 18.8502 96.4425 16.143 96.5263 13.4402C96.5907 12.7989 96.8824 12.2031 97.3473 11.7632C97.6053 11.5192 98.3124 11.6434 98.7638 11.7806C98.9594 11.8394 99.1249 12.3469 99.127 12.6518C99.1528 15.8643 99.1872 19.0768 99.1098 22.2871C99.0926 23.0058 98.6541 23.7158 98.3747 24.5304C96.0104 26.0876 93.2743 25.2774 90.637 25.3319C89.8396 25.3493 88.5113 23.9401 88.507 23.1539C88.4855 19.4383 88.4941 15.7205 88.507 12.0049C88.5233 11.908 88.5537 11.814 88.5973 11.7261Z" fill="white"/>
<path d="M65.5733 25.4212C65.4937 23.8356 66.0332 23.2432 67.3357 23.2432C68.8403 23.2432 70.3449 23.1691 71.8344 23.2693C72.6726 23.3238 72.9821 22.7314 73.2572 22.2566C73.4163 21.9822 73.0552 21.4072 72.9477 20.9651C72.6425 19.7236 71.6732 19.7214 70.6608 19.5123C69.2334 19.1943 67.8451 18.7173 66.5211 18.0901C66.0655 17.8832 65.6614 17.1645 65.5733 16.62C65.4185 15.7096 65.5023 14.7535 65.541 13.817C65.569 13.181 66.936 11.7305 67.6195 11.7153C69.9644 11.6673 72.3115 11.6978 74.635 11.6978C74.9595 13.2376 74.5125 13.8279 73.096 13.8344C71.7742 13.8344 70.4523 13.817 69.1326 13.8497C68.1052 13.8736 67.2218 15.2697 67.843 15.9514C68.4192 16.5772 69.1348 17.0544 69.93 17.3431C71.1466 17.7678 72.5093 17.7787 73.6828 18.2949C74.4567 18.6921 75.0518 19.3738 75.3464 20.2006C76.0299 22.3263 75.3765 25.5344 72.1331 25.4429C69.9687 25.3711 67.7979 25.4212 65.5733 25.4212Z" fill="white"/>
<path d="M43.2887 11.7131H51.7593L50.8243 13.8279C49.6099 13.8279 48.2601 13.8279 46.9103 13.8279C45.941 13.8279 45.395 14.3854 45.3714 15.3524C45.3349 16.8356 45.7174 17.3997 46.8373 17.4389C47.7658 17.4694 48.6965 17.4607 49.6314 17.4585C50.6481 17.4585 50.3235 18.247 50.4009 18.7849C50.4847 19.3621 50.2698 19.6561 49.6336 19.6278C48.7437 19.5886 47.8475 19.6125 46.9555 19.6278C45.7174 19.6387 45.3757 20.0634 45.3778 21.5879C45.38 23.1125 45.481 23.2236 46.9146 23.2345C47.9141 23.2345 48.9157 23.2345 49.9237 23.2345C51.2714 23.2345 51.813 23.8269 51.7765 25.3297H43.2887V11.7131Z" fill="white"/>
<path d="M53.6916 11.8416C55.5121 11.3537 56.0795 11.6238 56.8576 13.242C57.3541 14.2765 57.8184 15.3241 58.3235 16.3543C58.4248 16.5075 58.5716 16.6242 58.7426 16.6875C59.1009 16.3952 59.4202 16.057 59.6926 15.6813C60.4019 14.5531 61.1112 13.4184 61.7216 12.2358C62.3084 11.0989 63.1961 11.8851 63.9054 11.6107L64.1676 11.9004C63.9204 12.2968 63.656 12.6866 63.4282 13.0939C62.4803 14.7862 61.5346 16.4784 60.6104 18.1838C60.5664 18.2781 60.5436 18.3811 60.5436 18.4854C60.5436 18.5898 60.5664 18.6928 60.6104 18.7871C61.4701 20.1135 62.3772 21.4006 63.2025 22.7379C63.6539 23.4697 63.9634 24.2886 64.3395 25.0749C62.8522 25.9286 61.9 25.4059 61.195 23.9685C60.5975 22.751 59.7872 21.6359 59.0285 20.5055C58.9812 20.4358 58.4395 20.5382 58.3407 20.695C57.5927 21.895 56.8705 23.1103 56.1913 24.3561C55.6239 25.4059 54.7383 25.5736 53.7152 25.3798C53.5562 25.3493 53.2982 24.9224 53.3455 24.844C54.173 23.5002 55.065 22.1956 55.8904 20.8496C56.2833 20.2178 56.6103 19.5463 56.8662 18.8459C57.2767 17.7025 56.1462 17.0273 55.9011 16.0516C55.7055 15.2653 55.0801 14.5923 54.6803 13.8518C54.3342 13.2028 54.0333 12.5494 53.6916 11.8416Z" fill="white"/>
<path d="M86.2824 25.3427C83.9009 25.3427 81.5839 25.395 79.2712 25.3188C78.2889 25.2883 77.0896 23.8334 77.0767 22.7662C77.0466 19.9523 77.0516 17.1384 77.0917 14.3244C77.1111 13.1179 78.4329 11.7261 79.6839 11.6782C81.8569 11.5998 84.032 11.6564 86.2953 11.6564V13.8344C84.593 13.8344 82.9595 13.8344 81.326 13.8344C79.7849 13.8344 79.2647 14.3615 79.2518 15.9209C79.2389 17.6633 79.2518 19.386 79.2518 21.1175C79.2518 22.8076 79.6817 23.2258 81.3303 23.2345C82.4372 23.2345 83.5463 23.2345 84.6532 23.2345C86.4565 23.2323 86.5403 23.3368 86.2824 25.3427Z" fill="white"/>
</svg>
