<svg width="130" height="45" fill="none" xmlns="http://www.w3.org/2000/svg">
    <path fill-rule="evenodd" clip-rule="evenodd" d="M5.922 3.211A14.979 14.979 0 0 1 15.198 0h1.746c6.983 0 12.863 4.786 14.645 11.306a1.256 1.256 0 0 1-.857 1.543 1.23 1.23 0 0 1-1.517-.872c-1.494-5.463-6.424-9.471-12.27-9.471h-1.747a12.54 12.54 0 0 0-7.77 2.689 1.219 1.219 0 0 1-1.729-.227 1.267 1.267 0 0 1 .223-1.757ZM4.671 6.038c.548.41.666 1.195.262 1.752a13.027 13.027 0 0 0-2.468 7.662v14.096c0 5.91 3.896 10.898 9.222 12.448.654.19 1.033.884.845 1.55a1.23 1.23 0 0 1-1.524.859C4.653 42.555 0 36.605 0 29.548V15.452a15.56 15.56 0 0 1 2.948-9.147 1.22 1.22 0 0 1 1.723-.267ZM30.91 14.2c.68 0 1.232.56 1.232 1.252v14.096C32.143 38.082 25.338 45 16.944 45H15.2c-.681 0-1.233-.56-1.233-1.253 0-.692.552-1.253 1.232-1.253h1.746c7.033 0 12.734-5.796 12.734-12.946V15.452c0-.691.552-1.252 1.232-1.252Z" fill="url(#a)"/>
    <path fill-rule="evenodd" clip-rule="evenodd" d="M4.313 15.922c0-6.602 5.264-11.954 11.758-11.954.681 0 1.233.56 1.233 1.252s-.552 1.253-1.233 1.253c-5.132 0-9.293 4.23-9.293 9.45v13.886c0 .691-.552 1.252-1.233 1.252-.68 0-1.232-.56-1.232-1.252V15.922ZM19.207 5.626a1.224 1.224 0 0 1 1.626-.638c4.12 1.857 6.997 6.053 6.997 10.934v13.266c0 1.217.002 3.26-.946 4.867a1.22 1.22 0 0 1-1.69.43 1.265 1.265 0 0 1-.424-1.719c.564-.954.595-2.323.595-3.688V15.922c0-3.855-2.27-7.173-5.531-8.643a1.261 1.261 0 0 1-.627-1.653ZM6.032 32.54a1.224 1.224 0 0 1 1.643.593c1.494 3.192 4.693 5.394 8.396 5.394 2.473 0 4.717-.98 6.383-2.581a1.218 1.218 0 0 1 1.742.05 1.268 1.268 0 0 1-.049 1.77 11.62 11.62 0 0 1-8.076 3.267c-4.689 0-8.734-2.791-10.622-6.823a1.262 1.262 0 0 1 .583-1.67Z" fill="url(#b)"/>
    <path fill-rule="evenodd" clip-rule="evenodd" d="M13.864 9.501c.68 0 1.232.561 1.232 1.253v2.193c0 .692-.552 1.253-1.232 1.253a1.243 1.243 0 0 1-1.233-1.253v-2.193c0-.692.552-1.253 1.232-1.253Z" fill="url(#c)"/>
    <path fill-rule="evenodd" clip-rule="evenodd" d="M13.864 31.114c.68 0 1.232.56 1.232 1.253v2.192c0 .692-.552 1.253-1.232 1.253-.681 0-1.233-.56-1.233-1.253v-2.192c0-.692.552-1.253 1.232-1.253Z" fill="url(#d)"/>
    <path fill-rule="evenodd" clip-rule="evenodd" d="M13.76 31.949c0 .692-.55 1.253-1.232 1.253h-2.156c-.68 0-1.232-.561-1.232-1.253 0-.692.551-1.253 1.232-1.253h2.156c.681 0 1.233.561 1.233 1.253Z" fill="url(#e)"/>
    <path fill-rule="evenodd" clip-rule="evenodd" d="M13.76 13.26c0 .692-.55 1.253-1.232 1.253h-2.156c-.68 0-1.232-.561-1.232-1.253 0-.692.551-1.253 1.232-1.253h2.156c.681 0 1.233.56 1.233 1.253Z" fill="url(#f)"/>
    <path fill-rule="evenodd" clip-rule="evenodd" d="M17.458 9.501c.68 0 1.232.561 1.232 1.253v2.193c0 .692-.552 1.253-1.232 1.253-.68 0-1.232-.561-1.232-1.253v-2.193c0-.692.551-1.253 1.232-1.253Z" fill="url(#g)"/>
    <path fill-rule="evenodd" clip-rule="evenodd" d="M17.458 31.114c.68 0 1.232.56 1.232 1.253v2.192c0 .692-.552 1.253-1.232 1.253-.68 0-1.232-.56-1.232-1.253v-2.192c0-.692.551-1.253 1.232-1.253Z" fill="url(#h)"/>
    <path d="M19.054 21.74c.248.056.446.095.642.146 2.51.65 4.05 2.888 3.867 5.518-.205 2.963-2.25 5.116-5.206 5.638a9.102 9.102 0 0 1-1.502.121c-1.654.015-3.31.007-4.964.005-.909 0-1.416-.506-1.416-1.429V13.46c0-.929.504-1.44 1.409-1.443 1.476 0 2.952-.01 4.428 0 1.418.01 2.743.352 3.861 1.286 1.623 1.357 2.071 3.12 1.633 5.149-.271 1.253-.895 2.283-2.015 2.944-.217.125-.456.214-.737.346Zm-5.992 1.31c-.012.132-.019.182-.019.232 0 2.465 0 4.93-.005 7.395 0 .21.088.236.26.235 1.144-.006 2.287.005 3.43-.008a5.799 5.799 0 0 0 1.066-.105c2.15-.432 3.415-2.192 3.166-4.385a3.616 3.616 0 0 0-1.004-2.14 3.51 3.51 0 0 0-2.096-1.038c-1.575-.193-3.18-.135-4.798-.186Zm0-8.747v6.633c.028.01.057.018.087.023 1.04 0 2.081.02 3.12-.014a3.16 3.16 0 0 0 2.02-.777c1.075-.933 1.437-2.758.821-4.136-.308-.69-.787-1.205-1.485-1.462a4.236 4.236 0 0 0-1.264-.273c-1.038-.041-2.08-.018-3.12-.02a1.377 1.377 0 0 0-.182.026h.003Z" fill="url(#i)"/>
    <path d="M48.93 20.08h-3.087v12.687H43.4V20.08h-1.907v-2.01H43.4v-1.046c0-1.645.42-2.843 1.262-3.594 1.683-1.275 3.081-1.153 5.102-1.153v2.038c-1.074 0-2.555-.047-3.277.644-.43.41-.644 1.1-.644 2.065v1.046h3.088v2.011Zm6.26-4.398c-.466 0-.86-.161-1.182-.483a1.604 1.604 0 0 1-.483-1.18c0-.465.161-.858.483-1.18a1.608 1.608 0 0 1 1.182-.483c.447 0 .823.161 1.127.483.323.322.484.715.484 1.18 0 .465-.161.858-.484 1.18a1.49 1.49 0 0 1-1.127.483Zm1.181 2.387v14.698h-2.443V18.069h2.443Zm13.481-.269c1.79 0 3.24.546 4.35 1.637 1.11 1.072 1.665 2.628 1.665 4.666v8.664H73.45v-8.315c0-1.466-.367-2.584-1.1-3.352-.734-.787-1.737-1.18-3.008-1.18-1.289 0-2.318.402-3.088 1.206-.751.805-1.127 1.976-1.127 3.514v8.127h-2.444V18.069h2.444v2.092a4.87 4.87 0 0 1 1.96-1.744 6.226 6.226 0 0 1 2.765-.616Zm15.134 2.28v8.664c0 .715.152 1.224.457 1.528.304.286.832.43 1.584.43h1.799v2.065h-2.202c-1.36 0-2.38-.313-3.06-.94-.68-.625-1.021-1.653-1.021-3.084V20.08h-1.906v-2.01h1.906v-3.701h2.443v3.7h3.84v2.012h-3.84Zm8.035 5.284c0-1.502.305-2.816.913-3.943.609-1.144 1.441-2.029 2.497-2.655 1.074-.626 2.265-.938 3.571-.938 1.289 0 2.408.277 3.357.83.948.555 1.655 1.252 2.121 2.093v-2.682h2.47v14.698h-2.47V30.03c-.483.858-1.208 1.573-2.175 2.145-.949.555-2.059.832-3.33.832-1.306 0-2.487-.322-3.544-.966-1.056-.643-1.888-1.546-2.497-2.708-.608-1.163-.913-2.486-.913-3.97Zm12.459.027c0-1.109-.224-2.074-.671-2.897-.448-.822-1.057-1.448-1.826-1.877a4.794 4.794 0 0 0-2.497-.67c-.913 0-1.746.214-2.497.643-.752.43-1.352 1.055-1.8 1.878-.447.822-.67 1.788-.67 2.896 0 1.127.223 2.11.67 2.95.448.823 1.048 1.458 1.8 1.905a4.946 4.946 0 0 0 2.497.643c.913 0 1.745-.214 2.497-.643.769-.447 1.378-1.082 1.826-1.905.447-.84.671-1.814.671-2.923Zm11.19-4.613c.484-.84 1.2-1.538 2.148-2.092.967-.572 2.086-.858 3.357-.858 1.306 0 2.488.312 3.544.938 1.074.626 1.915 1.511 2.524 2.655.608 1.127.913 2.441.913 3.943 0 1.484-.305 2.807-.913 3.97-.609 1.162-1.45 2.065-2.524 2.708-1.056.644-2.238.966-3.544.966-1.253 0-2.363-.277-3.33-.832-.948-.572-1.673-1.278-2.175-2.118v9.682h-2.443V18.069h2.443v2.709Zm9.989 4.586c0-1.108-.224-2.074-.672-2.896-.447-.823-1.056-1.449-1.825-1.878a4.95 4.95 0 0 0-2.497-.644c-.895 0-1.728.224-2.497.67-.752.43-1.361 1.065-1.826 1.905-.448.823-.672 1.78-.672 2.87 0 1.109.224 2.083.672 2.923.465.823 1.074 1.458 1.826 1.905a5.043 5.043 0 0 0 2.497.643 4.95 4.95 0 0 0 2.497-.643 4.802 4.802 0 0 0 1.825-1.905c.448-.84.672-1.823.672-2.95Z" fill="#fff"/>
    <defs>
        <linearGradient id="a" x1="16.071" y1="0" x2="16.071" y2="45" gradientUnits="userSpaceOnUse">
            <stop stop-color="#2AF599"/>
            <stop offset="1" stop-color="#05A6F4"/>
        </linearGradient>
        <linearGradient id="b" x1="16.071" y1="0" x2="16.071" y2="45" gradientUnits="userSpaceOnUse">
            <stop stop-color="#2AF599"/>
            <stop offset="1" stop-color="#05A6F4"/>
        </linearGradient>
        <linearGradient id="c" x1="16.071" y1="0" x2="16.071" y2="45" gradientUnits="userSpaceOnUse">
            <stop stop-color="#2AF599"/>
            <stop offset="1" stop-color="#05A6F4"/>
        </linearGradient>
        <linearGradient id="d" x1="16.071" y1="0" x2="16.071" y2="45" gradientUnits="userSpaceOnUse">
            <stop stop-color="#2AF599"/>
            <stop offset="1" stop-color="#05A6F4"/>
        </linearGradient>
        <linearGradient id="e" x1="16.071" y1="0" x2="16.071" y2="45" gradientUnits="userSpaceOnUse">
            <stop stop-color="#2AF599"/>
            <stop offset="1" stop-color="#05A6F4"/>
        </linearGradient>
        <linearGradient id="f" x1="16.071" y1="0" x2="16.071" y2="45" gradientUnits="userSpaceOnUse">
            <stop stop-color="#2AF599"/>
            <stop offset="1" stop-color="#05A6F4"/>
        </linearGradient>
        <linearGradient id="g" x1="16.071" y1="0" x2="16.071" y2="45" gradientUnits="userSpaceOnUse">
            <stop stop-color="#2AF599"/>
            <stop offset="1" stop-color="#05A6F4"/>
        </linearGradient>
        <linearGradient id="h" x1="16.071" y1="0" x2="16.071" y2="45" gradientUnits="userSpaceOnUse">
            <stop stop-color="#2AF599"/>
            <stop offset="1" stop-color="#05A6F4"/>
        </linearGradient>
        <linearGradient id="i" x1="16.071" y1="0" x2="16.071" y2="45" gradientUnits="userSpaceOnUse">
            <stop stop-color="#2AF599"/>
            <stop offset="1" stop-color="#05A6F4"/>
        </linearGradient>
    </defs>
</svg>